<svg xmlns="http://www.w3.org/2000/svg" width="200" height="200" viewBox="0 0 1024 1024" version="1.1"><path d="M 398 512.010 L 398 670.102 475.250 669.739 C 549.602 669.388, 552.848 669.295, 561.777 667.260 C 610.497 656.153, 635.896 629.304, 638.648 586 C 641.016 548.741, 619.601 518.013, 583.349 506.650 C 578.866 505.245, 572.845 503.783, 569.969 503.402 L 564.741 502.708 574.189 499.604 C 595.688 492.541, 612.333 475.684, 619.713 453.500 C 622.037 446.512, 622.378 443.856, 622.405 432.500 C 622.430 421.920, 622.013 418.019, 620.165 411.545 C 616.878 400.033, 611.544 390.604, 603.501 382.088 C 591.755 369.654, 578.391 362.262, 557.732 356.775 C 549.671 354.633, 547.928 354.581, 473.750 354.253 L 398 353.917 398 512.010 M 449 441.431 L 449 488 480.276 488 C 521.094 488, 532.996 486.519, 546.901 479.711 C 560.506 473.049, 568.846 461.865, 571.044 447.335 C 573.975 427.953, 565.913 410.541, 550.127 402.160 C 538.353 395.910, 536.568 395.702, 490.750 395.263 L 449 394.863 449 441.431 M 449 577.573 L 449 629.147 493.250 628.742 C 534.558 628.365, 538.047 628.195, 545.730 626.189 C 573.163 619.026, 586 603.505, 586 577.500 C 586 557.386, 578.511 544.245, 562.147 535.646 C 547.334 527.863, 532.210 526.040, 482.250 526.016 L 449 526 449 577.573" stroke="none" fill="#f7f0fc" fill-rule="evenodd"/><path d="M 279.500 216.604 C 268.298 218.909, 255.116 225.946, 246.279 234.338 C 234.309 245.706, 227.941 256.382, 223.816 272 C 222.080 278.572, 221.849 282.538, 221.947 304.049 C 222.406 404.957, 202.717 466.040, 163.351 485.835 C 157.991 488.530, 152.508 490.212, 141.750 492.463 L 139 493.038 139 512 L 139 530.962 141.750 531.537 C 164.194 536.232, 176.035 543.281, 187.879 559.001 C 201.098 576.543, 210.887 602.955, 216.418 636 C 220.013 657.486, 221.170 673.758, 221.603 708.927 C 222.067 746.698, 222.530 750.961, 227.486 763.157 C 233.974 779.126, 247.692 793.831, 263.132 801.370 C 279.997 809.604, 260.294 809, 512 809 C 760.095 809, 743.966 809.423, 758.685 802.527 C 767.971 798.176, 772.176 795.271, 779.369 788.238 C 789.522 778.312, 795.369 768.507, 799.595 754.322 C 802.137 745.792, 802.220 744.705, 802.091 721.500 C 801.530 619.773, 821.271 557.966, 860.649 538.165 C 866.009 535.470, 871.492 533.788, 882.250 531.537 L 885 530.962 885 512 L 885 493.038 882.250 492.463 C 859.907 487.789, 847.872 480.595, 835.967 464.796 C 813.024 434.349, 801.664 379.921, 802.091 302.500 C 802.220 279.186, 802.147 278.243, 799.546 269.500 C 793.146 247.996, 779.780 231.893, 760.500 222.460 C 744.067 214.419, 763.343 214.990, 511.292 215.082 C 319.728 215.151, 285.465 215.376, 279.500 216.604 M 398 512.010 L 398 670.102 475.250 669.739 C 549.602 669.388, 552.848 669.295, 561.777 667.260 C 610.497 656.153, 635.896 629.304, 638.648 586 C 641.016 548.741, 619.601 518.013, 583.349 506.650 C 578.866 505.245, 572.845 503.783, 569.969 503.402 L 564.741 502.708 574.189 499.604 C 595.688 492.541, 612.333 475.684, 619.713 453.500 C 622.037 446.512, 622.378 443.856, 622.405 432.500 C 622.430 421.920, 622.013 418.019, 620.165 411.545 C 616.878 400.033, 611.544 390.604, 603.501 382.088 C 591.755 369.654, 578.391 362.262, 557.732 356.775 C 549.671 354.633, 547.928 354.581, 473.750 354.253 L 398 353.917 398 512.010 M 449 441.431 L 449 488 480.276 488 C 521.094 488, 532.996 486.519, 546.901 479.711 C 560.506 473.049, 568.846 461.865, 571.044 447.335 C 573.975 427.953, 565.913 410.541, 550.127 402.160 C 538.353 395.910, 536.568 395.702, 490.750 395.263 L 449 394.863 449 441.431 M 449 577.573 L 449 629.147 493.250 628.742 C 534.558 628.365, 538.047 628.195, 545.730 626.189 C 573.163 619.026, 586 603.505, 586 577.500 C 586 557.386, 578.511 544.245, 562.147 535.646 C 547.334 527.863, 532.210 526.040, 482.250 526.016 L 449 526 449 577.573" stroke="none" fill="#7d14f9" fill-rule="evenodd"/></svg>