<svg xmlns="http://www.w3.org/2000/svg" width="200" height="200" viewBox="0 0 340 480" version="1.1"><path d="M 80 32.500 L 80 65 106 65 L 132 65 132 54 L 132 43 117 43 L 102 43 102 32.500 L 102 22 117 22 L 132 22 132 11 L 132 0 106 0 L 80 0 80 32.500 M 141.230 21.250 L 141.500 42.500 156.250 42.777 C 168.450 43.006, 171 43.308, 171 44.527 C 171 45.759, 168.546 46, 156 46 L 141 46 141 56 L 141 66 167.500 66 L 194 66 194 44 L 194 22 179 22 C 166.333 22, 164 21.767, 164 20.500 C 164 19.233, 166.333 19, 179 19 L 194 19 194 9.500 L 194 0 167.480 0 L 140.960 0 141.230 21.250 M 203.230 21.250 L 203.500 42.500 218.250 42.777 C 230.450 43.006, 233 43.308, 233 44.527 C 233 45.759, 230.546 46, 218 46 L 203 46 203 56.017 L 203 66.033 229.250 65.767 L 255.500 65.500 255.500 44 L 255.500 22.500 240.750 22.223 C 228.675 21.997, 226 21.684, 226 20.500 C 226 19.316, 228.675 19.003, 240.750 18.777 L 255.500 18.500 255.788 9.250 L 256.075 0 229.518 0 L 202.960 0 203.230 21.250" stroke="none" fill="#000000" fill-rule="evenodd"/><path d="M 63.491 168.750 C 64.033 172.691, 67 204.934, 67 206.874 C 67 207.700, 88.682 208, 148.288 208 L 229.576 208 227.856 226.250 C 226.910 236.287, 226.105 245.963, 226.068 247.750 L 226 251 148.371 251 L 70.742 251 71.352 256.750 C 71.687 259.913, 72.441 268.575, 73.028 276 C 73.614 283.425, 74.306 290.512, 74.566 291.750 L 75.038 294 148.519 294 C 188.934 294, 221.995 294.337, 221.989 294.750 C 221.901 300.491, 216.850 348.528, 216.280 349.040 C 215.851 349.425, 205.150 352.502, 192.500 355.877 L 169.500 362.014 146 355.663 L 122.500 349.311 121.223 335.405 C 120.521 327.757, 119.713 320.038, 119.428 318.250 L 118.909 315 97.955 315 C 78.675 315, 76.998 315.140, 76.972 316.750 C 76.861 323.702, 82.504 380.721, 83.393 381.621 C 84.002 382.238, 103.738 388.059, 127.250 394.557 L 170 406.371 212.750 394.552 C 236.263 388.051, 255.853 382.417, 256.285 382.031 C 256.949 381.438, 276 173.928, 276 167.288 L 276 165 169.488 165 L 62.976 165 63.491 168.750" stroke="none" fill="#f3f3f5" fill-rule="evenodd"/><path d="M -0.030 95.756 C -0.108 100.383, 30.399 440.598, 30.950 441.243 C 31.667 442.081, 167.495 480, 169.780 480 C 171.466 480, 308.156 442.177, 308.801 441.533 C 309.034 441.300, 316.023 364.844, 324.333 271.632 C 332.642 178.419, 339.792 102.371, 340.220 102.636 C 340.649 102.901, 341 100.954, 341 98.309 L 341 93.500 170.500 93.756 C 9.109 93.998, -0.002 94.105, -0.030 95.756 M 0.300 99 C 0.300 102.025, 0.487 103.263, 0.716 101.750 C 0.945 100.237, 0.945 97.763, 0.716 96.250 C 0.487 94.737, 0.300 95.975, 0.300 99 M 63.491 168.750 C 64.033 172.691, 67 204.934, 67 206.874 C 67 207.700, 88.682 208, 148.288 208 L 229.576 208 227.856 226.250 C 226.910 236.287, 226.105 245.963, 226.068 247.750 L 226 251 148.371 251 L 70.742 251 71.352 256.750 C 71.687 259.913, 72.441 268.575, 73.028 276 C 73.614 283.425, 74.306 290.512, 74.566 291.750 L 75.038 294 148.519 294 C 188.934 294, 221.995 294.337, 221.989 294.750 C 221.901 300.491, 216.850 348.528, 216.280 349.040 C 215.851 349.425, 205.150 352.502, 192.500 355.877 L 169.500 362.014 146 355.663 L 122.500 349.311 121.223 335.405 C 120.521 327.757, 119.713 320.038, 119.428 318.250 L 118.909 315 97.955 315 C 78.675 315, 76.998 315.140, 76.972 316.750 C 76.861 323.702, 82.504 380.721, 83.393 381.621 C 84.002 382.238, 103.738 388.059, 127.250 394.557 L 170 406.371 212.750 394.552 C 236.263 388.051, 255.853 382.417, 256.285 382.031 C 256.949 381.438, 276 173.928, 276 167.288 L 276 165 169.488 165 L 62.976 165 63.491 168.750" stroke="none" fill="#204ad0" fill-rule="evenodd"/></svg>