<svg xmlns="http://www.w3.org/2000/svg" width="400" height="400" viewBox="0 0 3840 2160" version="1.1"><path d="M 1866.726 35.516 C 1742.065 45.460, 1627.578 84.885, 1525.500 153.020 C 1327.932 284.895, 1209.118 506.567, 1209.010 743.500 C 1208.947 882.802, 1249.120 1018.355, 1324.444 1133 C 1393.058 1237.433, 1484.084 1319.543, 1594.500 1376.605 C 1627.944 1393.888, 1681.745 1416.214, 1698 1419.555 C 1704.199 1420.829, 1714.324 1420.169, 1721.153 1418.047 C 1731.810 1414.735, 1740.724 1405.332, 1743.476 1394.500 C 1744.108 1392.014, 1744.293 1252.959, 1743.665 1252.332 C 1743.555 1252.221, 1738.522 1252.971, 1732.482 1253.999 C 1708.864 1258.017, 1694.578 1259.251, 1668 1259.572 C 1638.585 1259.927, 1623.290 1258.477, 1603.061 1253.415 C 1555.469 1241.507, 1523.440 1215.156, 1506.907 1174.306 C 1490.594 1134, 1457.268 1085.305, 1436.733 1071.771 C 1433.855 1069.874, 1428.125 1066.151, 1424 1063.497 C 1413.596 1056.805, 1407.426 1051.425, 1402.881 1045.087 C 1396.363 1035.996, 1397.744 1029.498, 1407.014 1025.647 C 1416.720 1021.614, 1439.324 1021.292, 1454.108 1024.976 C 1464.474 1027.559, 1484.051 1037.124, 1493.500 1044.222 C 1503.032 1051.382, 1516.896 1064.833, 1524.709 1074.500 C 1528.265 1078.900, 1535.482 1089.025, 1540.746 1097 C 1552.451 1114.733, 1559.083 1122.948, 1570.623 1134.010 C 1592.800 1155.268, 1617.631 1167.202, 1647.633 1171.021 C 1674.376 1174.425, 1706.512 1169.678, 1736.741 1157.860 C 1744.841 1154.693, 1747.086 1153.391, 1747.410 1151.674 C 1752.427 1125.047, 1756.628 1111.054, 1763.948 1096.580 C 1770.270 1084.079, 1776.894 1074.386, 1785.175 1065.520 C 1789.577 1060.807, 1791.688 1057.865, 1790.844 1057.622 C 1790.105 1057.408, 1780.500 1056.022, 1769.500 1054.541 C 1687.447 1043.495, 1623.815 1019.440, 1576 981.392 C 1564.072 971.900, 1543.934 951.351, 1534.705 939.252 C 1495.983 888.493, 1475.790 826.828, 1470.114 742 C 1468.857 723.219, 1469.552 684.426, 1471.394 670.500 C 1478.911 613.690, 1499.223 567.136, 1535.126 524.432 L 1541.909 516.364 1538.486 505.807 C 1530.560 481.367, 1527.451 457.317, 1528.308 427.082 C 1529.065 400.359, 1531.995 381.879, 1539.578 356 C 1543.015 344.270, 1548.357 329.309, 1549.523 328.145 C 1549.879 327.790, 1557.219 327.532, 1565.835 327.572 C 1578.865 327.632, 1583.679 328.102, 1594.454 330.369 C 1632.822 338.441, 1682.171 361.036, 1731.697 393.210 L 1743.894 401.134 1762.197 396.615 C 1802.668 386.624, 1844.146 380.479, 1887.245 378.091 C 1903.348 377.199, 1952.647 377.445, 1964.500 378.477 C 2015.596 382.924, 2041.223 386.864, 2079.181 396.108 L 2099.862 401.144 2108.700 395.201 C 2133.349 378.628, 2172.553 357.087, 2196 347.235 C 2217.991 337.995, 2237.046 332.130, 2254.962 329.087 C 2266.902 327.059, 2283.617 326.380, 2291.102 327.618 L 2294.705 328.214 2299.828 343.357 C 2319.392 401.184, 2321.019 454.374, 2304.824 506.777 L 2301.648 517.055 2305.160 520.777 C 2326.255 543.136, 2347.553 579.406, 2358.876 612.258 C 2369.673 643.583, 2374 671.697, 2374 710.526 C 2374 808.904, 2351.217 886.478, 2305.724 943 C 2295.228 956.040, 2274.574 976.124, 2261.667 985.842 C 2214.822 1021.111, 2152.867 1043.774, 2074 1054.488 C 2063.275 1055.945, 2053.518 1057.333, 2052.317 1057.571 C 2050.335 1057.965, 2050.617 1058.486, 2055.396 1063.266 C 2063.971 1071.841, 2072.796 1084.620, 2079.008 1097.460 C 2085.452 1110.778, 2087.911 1117.560, 2091.488 1131.873 C 2097.714 1156.786, 2097.497 1151.542, 2097.531 1278 C 2097.561 1393.196, 2097.567 1393.514, 2099.673 1398.721 C 2102.462 1405.615, 2106.930 1411.111, 2112.753 1414.813 C 2119.113 1418.857, 2124.517 1420.144, 2134.921 1420.095 C 2144.549 1420.049, 2153.167 1417.497, 2181.500 1406.303 C 2369.719 1331.936, 2519.157 1178.058, 2588.379 987.338 C 2618.224 905.108, 2632.626 817.518, 2630.610 730.500 C 2630.253 715.100, 2629.730 699.800, 2629.448 696.500 C 2626.057 656.858, 2622.881 633.306, 2616.930 603.669 C 2566.953 354.790, 2386.279 150.486, 2144.914 69.917 C 2090.796 51.852, 2045.119 42.618, 1974.500 35.464 C 1961.352 34.132, 1883.606 34.170, 1866.726 35.516 M 973 1497.611 C 862.759 1510.773, 795.632 1571.741, 766.971 1684.738 C 748.224 1758.647, 747.204 1866.391, 764.579 1937.189 C 771.415 1965.040, 777.745 1982.657, 788.653 2004.183 C 816.860 2059.848, 862.296 2097.171, 923.590 2115.026 C 941.973 2120.381, 965.357 2124.866, 983.500 2126.517 C 986.800 2126.817, 993.325 2127.453, 998 2127.930 C 1002.675 2128.407, 1020.225 2128.682, 1037 2128.540 C 1061.569 2128.332, 1070.593 2127.863, 1083.403 2126.126 C 1127.352 2120.168, 1168.994 2106.594, 1201.167 2087.740 C 1206.140 2084.825, 1210.295 2081.647, 1210.917 2080.283 C 1212.448 2076.922, 1212.446 1775.073, 1210.915 1771.712 C 1210.318 1770.402, 1208.554 1768.577, 1206.995 1767.656 C 1204.394 1766.120, 1195.891 1765.984, 1103.776 1766.009 C 992.446 1766.040, 1000.339 1765.551, 997.394 1772.599 C 995.320 1777.562, 995.345 1870.496, 997.421 1875.466 C 1000.020 1881.685, 1000.369 1881.733, 1043 1881.695 L 1081.500 1881.660 1081.758 1940.522 C 1081.900 1972.896, 1081.671 1999.729, 1081.250 2000.150 C 1080.491 2000.909, 1066.692 2003.458, 1058 2004.445 C 1045.554 2005.859, 1009.667 2006.223, 998.912 2005.044 C 955.774 2000.316, 926.407 1979.932, 907.144 1941.344 C 893.311 1913.635, 885.725 1875.102, 884.339 1825.500 C 882.102 1745.473, 898.754 1685.386, 931.961 1653.660 C 961.535 1625.404, 1001.762 1615.406, 1070 1619.349 C 1098.939 1621.021, 1119.872 1624.746, 1144.232 1632.558 C 1150.134 1634.451, 1155.996 1636, 1157.259 1636 C 1160.386 1636, 1163.500 1633.649, 1164.824 1630.290 C 1166.111 1627.024, 1188 1533.968, 1188 1531.763 C 1188 1528.585, 1183.445 1524.769, 1174.655 1520.582 C 1150.086 1508.879, 1114.091 1500.829, 1069.500 1497.065 C 1052.945 1495.667, 986.114 1496.046, 973 1497.611 M 1786.400 1521.400 L 1783 1524.800 1783 1816.966 C 1783 2030.181, 1783.302 2109.722, 1784.117 2111.316 C 1784.731 2112.517, 1786.194 2114.277, 1787.367 2115.228 C 1789.334 2116.821, 1794.062 2116.956, 1848 2116.956 C 1901.938 2116.956, 1906.666 2116.821, 1908.633 2115.228 C 1909.806 2114.277, 1911.269 2112.517, 1911.883 2111.316 C 1912.688 2109.742, 1913 2074.340, 1913 1984.566 L 1913 1860 1998.500 1860 L 2084 1860 2084 1985.577 L 2084 2111.154 2086.923 2114.077 L 2089.846 2117 2147.876 2117 C 2189.141 2117, 2206.628 2116.671, 2208.405 2115.861 C 2209.779 2115.235, 2211.603 2113.250, 2212.457 2111.450 C 2213.852 2108.510, 2213.984 2078.436, 2213.755 1816.006 L 2213.500 1523.836 2210.234 1520.918 L 2206.968 1518 2149.435 1518 C 2087.009 1518, 2087.715 1517.940, 2085.195 1523.472 C 2084.292 1525.453, 2084 1552.368, 2084 1633.547 C 2084 1692.646, 2083.662 1741.045, 2083.250 1741.100 C 2082.838 1741.154, 2044.362 1741.267, 1997.750 1741.350 L 1913 1741.500 1913 1633.150 L 1913 1524.800 1909.600 1521.400 L 1906.200 1518 1848 1518 L 1789.800 1518 1786.400 1521.400 M 2701.792 1520.895 L 2698.500 1523.836 2698.245 1816.006 C 2698.016 2078.436, 2698.148 2108.510, 2699.543 2111.450 C 2700.397 2113.250, 2702.221 2115.235, 2703.595 2115.861 C 2705.333 2116.653, 2718.518 2117, 2746.912 2117 C 2786.322 2117, 2787.819 2116.930, 2790.293 2114.984 C 2793.273 2112.640, 2794.538 2109.185, 2795.965 2099.500 C 2796.531 2095.650, 2797.252 2090.983, 2797.566 2089.128 L 2798.136 2085.756 2800.818 2088.267 C 2805.938 2093.061, 2819.124 2101.173, 2831.279 2107.007 C 2861.710 2121.613, 2892.147 2128.277, 2928.500 2128.291 C 2953.839 2128.301, 2971.419 2125.877, 2989.415 2119.892 C 3046.424 2100.933, 3076.046 2049.930, 3085.182 1955 C 3086.631 1939.941, 3086.993 1874.447, 3085.712 1859 C 3083.878 1836.873, 3079.599 1814.975, 3073.439 1796.196 C 3055.121 1740.343, 3019.935 1708.168, 2966.500 1698.406 C 2955.835 1696.458, 2920.377 1695.627, 2909 1697.059 C 2880.254 1700.676, 2859.028 1707.482, 2828.750 1722.788 C 2828.338 1722.996, 2828 1678.379, 2828 1623.639 L 2828 1524.112 2825.587 1521.306 L 2823.174 1518.500 2764.129 1518.227 L 2705.083 1517.954 2701.792 1520.895 M 1333 1531.704 C 1303.092 1535.528, 1281.108 1553.285, 1271.348 1581.500 C 1268.850 1588.722, 1268.577 1590.861, 1268.541 1603.500 C 1268.509 1614.367, 1268.913 1618.843, 1270.347 1623.500 C 1285.855 1673.892, 1343.403 1692.585, 1384.242 1660.495 C 1395.845 1651.378, 1405.368 1635.973, 1409.139 1620.221 C 1412.022 1608.173, 1411.405 1592.930, 1407.569 1581.500 C 1399.237 1556.670, 1379.360 1538.571, 1354.241 1532.942 C 1349.359 1531.848, 1337.349 1531.148, 1333 1531.704 M 1512 1594 C 1510.046 1595.954, 1510 1597.333, 1510 1653.805 L 1510 1711.611 1479.750 1718.955 C 1463.112 1722.994, 1448.557 1726.913, 1447.404 1727.664 C 1446.251 1728.414, 1444.789 1730.168, 1444.154 1731.561 C 1442.689 1734.777, 1442.526 1806.622, 1443.975 1810.434 C 1444.511 1811.845, 1446.290 1813.814, 1447.927 1814.810 C 1450.629 1816.453, 1453.632 1816.615, 1480.399 1816.560 L 1509.893 1816.500 1510.299 1914 C 1510.652 1998.841, 1510.918 2012.727, 1512.353 2020.949 C 1517.966 2053.124, 1528.341 2074.896, 1546.449 2092.500 C 1567.935 2113.389, 1595.060 2123.747, 1637.011 2127.084 C 1653.318 2128.382, 1657.951 2128.451, 1669.552 2127.572 C 1686.508 2126.287, 1715.317 2120.879, 1725.149 2117.135 C 1731.080 2114.876, 1731 2115.540, 1731 2068.833 L 1731 2026.112 1728.587 2023.306 C 1725.853 2020.127, 1727.256 2020.214, 1699.500 2021.507 C 1686.328 2022.121, 1681.909 2021.952, 1674.500 2020.552 C 1657.604 2017.360, 1647.482 2010.459, 1641.655 1998.159 L 1638.500 1991.500 1638.500 1904.064 L 1638.500 1816.628 1681.227 1816.564 L 1723.955 1816.500 1726.727 1813.728 L 1729.500 1810.956 1729.779 1763.755 C 1729.981 1729.498, 1729.738 1715.781, 1728.891 1713.737 C 1726.469 1707.889, 1727.402 1708, 1680.802 1708 L 1638.048 1708 1637.774 1651.419 C 1637.509 1596.732, 1637.435 1594.790, 1635.559 1593.419 C 1633.934 1592.231, 1623.876 1592, 1573.809 1592 C 1515.333 1592, 1513.955 1592.045, 1512 1594 M 1278.961 1709.461 C 1273.131 1712.633, 1273.500 1699.004, 1273.500 1911.401 C 1273.500 2105.774, 1273.508 2106.513, 1275.534 2110 C 1279.704 2117.175, 1278.077 2116.997, 1339.300 2116.998 C 1399.418 2117, 1398.344 2117.103, 1401.483 2111.033 C 1402.824 2108.440, 1403 2085.218, 1403 1910.973 L 1403 1713.846 1400.077 1710.923 L 1397.154 1708 1339.327 1708.040 C 1292.083 1708.073, 1281.035 1708.333, 1278.961 1709.461 M 2269.923 1711.923 L 2267 1714.846 2267 1858.179 C 2267 2010.986, 2267.097 2014.472, 2271.919 2035.153 C 2285.068 2091.544, 2320.548 2120.149, 2386.341 2127.402 C 2400.424 2128.955, 2428.683 2129.206, 2441 2127.889 C 2461.222 2125.725, 2483.970 2119.964, 2505.524 2111.548 C 2517.733 2106.781, 2536.725 2097.511, 2544.613 2092.469 L 2549.725 2089.201 2550.914 2097.850 C 2552.742 2111.155, 2553.608 2113.601, 2557.270 2115.809 C 2560.344 2117.663, 2562.310 2117.742, 2597.929 2117.452 C 2624.307 2117.237, 2636.010 2116.797, 2637.568 2115.963 C 2642.770 2113.180, 2642.500 2124.314, 2642.500 1912.264 L 2642.500 1714.836 2639.234 1711.918 L 2635.968 1709 2577.907 1709 L 2519.846 1709 2516.923 1711.923 L 2514 1714.846 2514 1858.838 L 2514 2002.829 2503.250 2008.286 C 2479.531 2020.326, 2453.181 2025.133, 2431.612 2021.353 C 2421.365 2019.558, 2416.186 2017.189, 2410.140 2011.534 C 2403.186 2005.030, 2398.878 1993.818, 2397.638 1979 C 2397.385 1975.975, 2397.138 1915.303, 2397.089 1844.173 L 2397 1714.846 2394.077 1711.923 L 2391.154 1709 2332 1709 L 2272.846 1709 2269.923 1711.923 M 2877 1803.518 C 2861.875 1805.652, 2840.376 1812.753, 2829.250 1819.288 L 2826 1821.198 2826 1912.948 L 2826 2004.698 2835.750 2009.261 C 2854.634 2018.099, 2873.263 2022.200, 2894.500 2022.193 C 2923.351 2022.183, 2937.723 2014.921, 2946.904 1995.713 C 2955.120 1978.525, 2958.971 1950.888, 2958.987 1909 C 2958.997 1879.901, 2956.317 1859.467, 2950.242 1842.335 C 2942.987 1821.875, 2929.286 1808.658, 2910.599 1804.092 C 2903.190 1802.282, 2887.643 1802.017, 2877 1803.518" stroke="none" fill="#000000" fill-rule="evenodd"/><path d="" stroke="none" fill="#080404" fill-rule="evenodd"/><path d="" stroke="none" fill="#040404" fill-rule="evenodd"/></svg>