<svg xmlns="http://www.w3.org/2000/svg" width="200" height="200" viewBox="0 0 2048 2048" version="1.1"><path d="M 433 138 L 433 276 480 276 L 527 276 527 230 L 527 184 568.500 184 L 610 184 610 230 L 610 276 656.500 276 L 703 276 703 138 L 703 0 656.500 0 L 610 0 610 45.500 L 610 91 568 91 L 526 91 526 45.500 L 526 0 479.500 0 L 433 0 433 138 M 742 46 L 742 92 783 92 L 824 92 824 184 L 824 276 870 276 L 916 276 916 184 L 916 92 957 92 L 998 92 998 46 L 998 0 870 0 L 742 0 742 46 M 1038 137.990 L 1038 276 1083.493 276 L 1128.986 276 1129.243 208.785 L 1129.500 141.571 1161 190.201 C 1184.205 226.025, 1192.786 238.524, 1193.584 237.666 C 1194.181 237.024, 1208.581 215.018, 1225.584 188.763 L 1256.500 141.026 1256.757 208.513 L 1257.014 276 1303.507 276 L 1350 276 1350 138 L 1350 0 1301.174 0 L 1252.347 0 1224.023 46.515 C 1208.445 72.098, 1195.189 93.726, 1194.567 94.578 C 1193.639 95.846, 1188.169 87.484, 1164.304 48.313 L 1135.174 0.500 1086.587 0.240 L 1038 -0.019 1038 137.990 M 1394 138 L 1394 276 1506.010 276 L 1618.020 276 1617.760 230.250 L 1617.500 184.500 1552.250 184.243 L 1487 183.986 1487 91.993 L 1487 0 1440.500 0 L 1394 0 1394 138" stroke="none" fill="#000000" fill-rule="evenodd"/><path d="M 568.405 709.750 C 568.731 712.362, 579.816 834.875, 593.040 982 C 606.263 1129.125, 617.297 1250.513, 617.560 1251.750 L 618.038 1254 932.519 1254 C 1105.484 1254, 1247 1254.373, 1247 1254.830 C 1247 1260.233, 1225.796 1489.591, 1225.249 1490.105 C 1224.240 1491.052, 1026.040 1544.201, 1023.500 1544.206 C 1021.697 1544.209, 822.013 1491.111, 821.129 1490.393 C 820.849 1490.165, 808.087 1349.417, 808.015 1345.750 C 808.007 1345.338, 767.050 1345, 717 1345 L 626 1345 626 1347.124 C 626 1352.968, 651.240 1629.588, 651.822 1630.124 C 652.195 1630.468, 735.758 1653.956, 837.517 1682.320 L 1022.534 1733.890 1208.517 1682.318 C 1310.808 1653.954, 1394.684 1630.582, 1394.908 1630.381 C 1395.296 1630.035, 1444.895 1079.991, 1444.966 1075.250 L 1445 1073 1114.572 1073 L 784.144 1073 783.541 1067.750 C 783.209 1064.862, 779.585 1024.925, 775.487 979 C 771.389 933.075, 767.775 893.587, 767.456 891.250 L 766.877 887 1114.439 887 C 1455.513 887, 1462 886.964, 1462 885.096 C 1462 884.048, 1465.600 844.349, 1470 796.875 C 1474.400 749.401, 1478 709.308, 1478 707.780 L 1478 705 1022.906 705 L 567.812 705 568.405 709.750" stroke="none" fill="#f3f3f3" fill-rule="evenodd"/><path d="M 298.001 402.250 C 298.014 407.794, 430.193 1883.570, 430.719 1884.048 C 431.643 1884.888, 1020.838 2048.005, 1022.936 2048.002 C 1024.164 2048, 1617.065 1884.060, 1617.743 1883.535 C 1617.877 1883.431, 1647.451 1552.631, 1683.462 1148.423 C 1719.473 744.215, 1749.221 410.913, 1749.567 407.750 L 1750.196 402 1024.098 402 C 624.744 402, 298 402.113, 298.001 402.250 M 568.405 709.750 C 568.731 712.362, 579.816 834.875, 593.040 982 C 606.263 1129.125, 617.297 1250.513, 617.560 1251.750 L 618.038 1254 932.519 1254 C 1105.484 1254, 1247 1254.373, 1247 1254.830 C 1247 1260.233, 1225.796 1489.591, 1225.249 1490.105 C 1224.240 1491.052, 1026.040 1544.201, 1023.500 1544.206 C 1021.697 1544.209, 822.013 1491.111, 821.129 1490.393 C 820.849 1490.165, 808.087 1349.417, 808.015 1345.750 C 808.007 1345.338, 767.050 1345, 717 1345 L 626 1345 626 1347.124 C 626 1352.968, 651.240 1629.588, 651.822 1630.124 C 652.195 1630.468, 735.758 1653.956, 837.517 1682.320 L 1022.534 1733.890 1208.517 1682.318 C 1310.808 1653.954, 1394.684 1630.582, 1394.908 1630.381 C 1395.296 1630.035, 1444.895 1079.991, 1444.966 1075.250 L 1445 1073 1114.572 1073 L 784.144 1073 783.541 1067.750 C 783.209 1064.862, 779.585 1024.925, 775.487 979 C 771.389 933.075, 767.775 893.587, 767.456 891.250 L 766.877 887 1114.439 887 C 1455.513 887, 1462 886.964, 1462 885.096 C 1462 884.048, 1465.600 844.349, 1470 796.875 C 1474.400 749.401, 1478 709.308, 1478 707.780 L 1478 705 1022.906 705 L 567.812 705 568.405 709.750" stroke="none" fill="#e85324" fill-rule="evenodd"/></svg>