<svg xmlns="http://www.w3.org/2000/svg" width="860" height="1247" viewBox="0 0 860 1247" version="1.1"><path d="M 363.759 94.750 L 363.500 148.500 332 149.021 L 300.500 149.543 332.750 149.771 L 365 150 365 95.500 C 365 65.525, 364.779 41, 364.509 41 C 364.238 41, 363.901 65.188, 363.759 94.750 M 425.460 86.500 C 425.460 111.250, 425.590 121.232, 425.749 108.682 C 425.908 96.132, 425.908 75.882, 425.749 63.682 C 425.590 51.482, 425.460 61.750, 425.460 86.500 M 567.407 60 C 567.407 69.075, 567.559 72.787, 567.744 68.250 C 567.929 63.712, 567.929 56.288, 567.744 51.750 C 567.559 47.212, 567.407 50.925, 567.407 60 M 466 89.500 L 466 98 516.667 98 C 544.533 98, 566.996 97.662, 566.584 97.250 C 566.172 96.838, 543.709 96.275, 516.667 96 L 467.500 95.500 467.500 89 L 467.500 82.500 516.500 81.986 L 565.500 81.471 515.750 81.236 L 466 81 466 89.500 M 567.460 143 C 567.460 167.475, 567.590 177.488, 567.749 165.250 C 567.908 153.013, 567.908 132.988, 567.749 120.750 C 567.590 108.513, 567.460 118.525, 567.460 143 M 426.654 134.250 C 426.909 134.662, 449.366 135, 476.559 135 L 526 135 525.985 140.750 C 525.976 143.912, 525.615 147.058, 525.182 147.740 C 524.578 148.690, 513.670 149.043, 478.447 149.250 L 432.500 149.521 479.750 149.760 L 527 150 527 142.018 L 527 134.036 476.595 133.768 C 448.873 133.621, 426.399 133.838, 426.654 134.250 M 425.365 170.500 C 425.368 176, 425.536 178.122, 425.738 175.216 C 425.941 172.311, 425.939 167.811, 425.734 165.216 C 425.528 162.622, 425.363 165, 425.365 170.500 M 305.450 257.668 C 303.773 257.904, 262.598 258.451, 213.950 258.884 C 138.074 259.559, 153.789 259.670, 324.500 259.665 C 466.243 259.661, 503.503 259.458, 454 258.959 C 415.775 258.574, 367.400 258.029, 346.500 257.749 C 325.600 257.468, 307.128 257.432, 305.450 257.668 M 603.826 259.750 C 631.506 259.898, 676.506 259.898, 703.826 259.750 C 731.147 259.602, 708.500 259.481, 653.500 259.481 C 598.500 259.481, 576.147 259.602, 603.826 259.750 M 31.667 260.667 C 30.822 261.511, 31.004 267.577, 31.992 271.500 C 32.518 273.589, 32.710 272.301, 32.624 267.260 C 32.556 263.278, 32.462 260.015, 32.417 260.010 C 32.371 260.004, 32.033 260.300, 31.667 260.667 M 829.310 267.500 C 829.315 270.800, 829.502 272.029, 829.725 270.232 C 829.947 268.435, 829.943 265.735, 829.715 264.232 C 829.486 262.729, 829.304 264.200, 829.310 267.500 M 828.180 278.610 C 828.081 280.871, 827.786 284.921, 827.525 287.610 L 827.050 292.500 828.043 288 C 828.589 285.525, 828.884 281.475, 828.698 279 L 828.360 274.500 828.180 278.610 M 33.286 283.500 C 33.294 286.250, 33.488 287.256, 33.718 285.736 C 33.947 284.216, 33.941 281.966, 33.704 280.736 C 33.467 279.506, 33.279 280.750, 33.286 283.500 M 826.286 301.500 C 826.294 304.250, 826.488 305.256, 826.718 303.736 C 826.947 302.216, 826.941 299.966, 826.704 298.736 C 826.467 297.506, 826.279 298.750, 826.286 301.500 M 824.545 319.045 C 824.151 324.609, 824.042 329.375, 824.302 329.636 C 824.563 329.896, 825.102 325.560, 825.500 320 C 825.898 314.440, 826.007 309.674, 825.743 309.410 C 825.479 309.146, 824.940 313.482, 824.545 319.045 M 36.286 318.500 C 36.294 321.250, 36.488 322.256, 36.718 320.736 C 36.947 319.216, 36.941 316.966, 36.704 315.736 C 36.467 314.506, 36.279 315.750, 36.286 318.500 M 822.684 340.399 C 822.289 345.294, 822.157 349.490, 822.390 349.724 C 823.008 350.341, 824.280 335.658, 823.804 333.404 C 823.583 332.357, 823.079 335.505, 822.684 340.399 M 38.286 340.500 C 38.294 343.250, 38.488 344.256, 38.718 342.736 C 38.947 341.216, 38.941 338.966, 38.704 337.736 C 38.467 336.506, 38.279 337.750, 38.286 340.500 M 39.300 352 C 39.300 355.025, 39.487 356.262, 39.716 354.750 C 39.945 353.238, 39.945 350.762, 39.716 349.250 C 39.487 347.738, 39.300 348.975, 39.300 352 M 821.310 359.500 C 821.315 362.800, 821.502 364.029, 821.725 362.232 C 821.947 360.435, 821.943 357.735, 821.715 356.232 C 821.486 354.729, 821.304 356.200, 821.310 359.500 M 820.180 369.610 C 820.081 371.871, 819.786 375.921, 819.525 378.610 L 819.050 383.500 820.043 379 C 820.589 376.525, 820.884 372.475, 820.698 370 L 820.360 365.500 820.180 369.610 M 41.300 376 C 41.300 379.025, 41.487 380.262, 41.716 378.750 C 41.945 377.238, 41.945 374.762, 41.716 373.250 C 41.487 371.738, 41.300 372.975, 41.300 376 M 817.588 399.318 C 817.156 404.718, 817.029 409.363, 817.306 409.639 C 817.980 410.313, 819.322 393.841, 818.791 391.413 C 818.561 390.361, 818.019 393.918, 817.588 399.318 M 44.310 411.500 C 44.315 414.800, 44.502 416.029, 44.725 414.232 C 44.947 412.435, 44.943 409.735, 44.715 408.232 C 44.486 406.729, 44.304 408.200, 44.310 411.500 M 814.660 434.349 C 814.223 439.766, 814.079 444.412, 814.340 444.673 C 815.023 445.356, 816.254 431.071, 815.820 427.500 C 815.620 425.850, 815.098 428.932, 814.660 434.349 M 312 649.302 L 312 871.605 235.750 850.818 C 193.813 839.385, 159.387 830.024, 159.250 830.015 C 159.113 830.007, 159 850.683, 159 875.961 L 159 921.923 163.250 923.045 C 165.588 923.661, 219.374 938.304, 282.777 955.583 C 346.179 972.862, 398.491 987, 399.027 987 C 399.655 987, 400 887.898, 400 707 L 400 427 356 427 L 312 427 312 649.302 M 461.667 427.667 C 461.300 428.033, 461 504.758, 461 598.167 C 461 760.808, 461.076 768, 462.793 768 C 464.750 768, 515.668 760.138, 589 748.513 C 596.975 747.249, 603.599 746.303, 603.720 746.411 C 604.023 746.681, 592.016 859.330, 591.653 859.624 C 591.569 859.693, 585.650 861.350, 578.500 863.306 C 565.596 866.837, 542.439 873.233, 492.500 887.061 C 478.200 891.020, 465.375 894.571, 464 894.952 L 461.500 895.644 461.240 940.511 C 461.090 966.251, 461.364 985.764, 461.882 986.282 C 462.418 986.818, 473.264 984.281, 488.642 980.021 C 528.584 968.955, 555.975 961.382, 613.500 945.498 C 642.650 937.449, 666.772 930.556, 667.104 930.181 C 667.436 929.807, 668.214 923.650, 668.832 916.500 C 670.090 901.952, 680.035 793.779, 685.473 735.500 C 691.727 668.472, 693.706 646.506, 693.517 646.249 C 693.415 646.111, 675.370 648.715, 653.416 652.034 C 631.462 655.353, 600 660.077, 583.500 662.530 C 567 664.984, 552.485 667.227, 551.244 667.516 L 548.988 668.041 549.244 591.496 L 549.500 514.951 625.500 514.967 C 667.300 514.976, 702 514.650, 702.611 514.242 C 703.636 513.558, 711.039 439.976, 711.011 430.750 L 711 427 586.667 427 C 518.283 427, 462.033 427.300, 461.667 427.667 M 47.300 446 C 47.300 449.025, 47.487 450.262, 47.716 448.750 C 47.945 447.238, 47.945 444.762, 47.716 443.250 C 47.487 441.738, 47.300 442.975, 47.300 446 M 813.300 453 C 813.300 456.025, 813.487 457.262, 813.716 455.750 C 813.945 454.238, 813.945 451.762, 813.716 450.250 C 813.487 448.738, 813.300 449.975, 813.300 453 M 812.180 462.500 C 812.072 464.700, 811.769 468.975, 811.507 472 C 811.047 477.319, 811.065 477.368, 812.055 473.500 C 812.618 471.300, 812.921 467.025, 812.729 464 C 812.454 459.684, 812.336 459.361, 812.180 462.500 M 49.286 468.500 C 49.294 471.250, 49.488 472.256, 49.718 470.736 C 49.947 469.216, 49.941 466.966, 49.704 465.736 C 49.467 464.506, 49.279 465.750, 49.286 468.500 M 50.088 480.083 C 50.136 483.063, 50.551 487.750, 51.010 490.500 C 51.600 494.037, 51.686 492.574, 51.303 485.500 C 50.718 474.707, 49.945 471.260, 50.088 480.083 M 809.059 497.554 C 808.353 506.109, 807.991 513.324, 808.255 513.588 C 808.518 513.852, 809.002 511.465, 809.329 508.284 C 810.369 498.158, 811.274 482, 810.800 482 C 810.549 482, 809.765 488.999, 809.059 497.554 M 52.058 502.583 C 52.089 505.288, 52.497 509.300, 52.965 511.500 C 53.557 514.292, 53.649 512.933, 53.270 507 C 52.663 497.534, 51.969 495.003, 52.058 502.583 M 807.310 521.500 C 807.315 524.800, 807.502 526.029, 807.725 524.232 C 807.947 522.435, 807.943 519.735, 807.715 518.232 C 807.486 516.729, 807.304 518.200, 807.310 521.500 M 54.310 526.500 C 54.315 529.800, 54.502 531.029, 54.725 529.232 C 54.947 527.435, 54.943 524.735, 54.715 523.232 C 54.486 521.729, 54.304 523.200, 54.310 526.500 M 806.286 532.500 C 806.294 535.250, 806.488 536.256, 806.718 534.736 C 806.947 533.216, 806.941 530.966, 806.704 529.736 C 806.467 528.506, 806.279 529.750, 806.286 532.500 M 55.100 539.083 C 55.155 542.063, 55.551 545.625, 55.981 547 C 56.421 548.411, 56.536 546.232, 56.243 542 C 55.628 533.117, 54.958 531.409, 55.100 539.083 M 804.602 549.250 C 804.241 554.337, 803.746 560.975, 803.502 564 C 803.149 568.369, 803.234 568.822, 803.912 566.205 C 804.886 562.446, 806.441 540, 805.728 540 C 805.469 540, 804.963 544.163, 804.602 549.250 M 57.300 562 C 57.300 565.025, 57.487 566.263, 57.716 564.750 C 57.945 563.237, 57.945 560.763, 57.716 559.250 C 57.487 557.737, 57.300 558.975, 57.300 562 M 58.300 573 C 58.300 576.025, 58.487 577.263, 58.716 575.750 C 58.945 574.237, 58.945 571.763, 58.716 570.250 C 58.487 568.737, 58.300 569.975, 58.300 573 M 801.545 585.045 C 801.151 590.609, 801.042 595.375, 801.302 595.636 C 801.563 595.896, 802.102 591.560, 802.500 586 C 802.898 580.440, 803.007 575.674, 802.743 575.410 C 802.479 575.146, 801.940 579.482, 801.545 585.045 M 60.118 596.083 C 60.183 599.063, 60.582 602.850, 61.004 604.500 C 61.439 606.202, 61.544 604.039, 61.246 599.500 C 60.639 590.247, 59.945 588.145, 60.118 596.083 M 798.660 618.349 C 798.223 623.766, 798.079 628.412, 798.340 628.673 C 799.023 629.356, 800.254 615.071, 799.820 611.500 C 799.620 609.850, 799.098 612.932, 798.660 618.349 M 63.118 630.083 C 63.183 633.063, 63.582 636.850, 64.004 638.500 C 64.439 640.202, 64.544 638.039, 64.246 633.500 C 63.639 624.247, 62.945 622.145, 63.118 630.083 M 797.300 637 C 797.300 640.025, 797.487 641.263, 797.716 639.750 C 797.945 638.237, 797.945 635.763, 797.716 634.250 C 797.487 632.737, 797.300 633.975, 797.300 637 M 796.193 647.110 C 796.087 649.646, 795.777 653.921, 795.504 656.610 C 795.046 661.128, 795.087 661.248, 796.050 658.183 C 796.623 656.359, 796.933 652.084, 796.739 648.683 C 796.445 643.535, 796.353 643.272, 796.193 647.110 M 65.286 652.500 C 65.294 655.250, 65.488 656.256, 65.718 654.736 C 65.947 653.216, 65.941 650.966, 65.704 649.736 C 65.467 648.506, 65.279 649.750, 65.286 652.500 M 66.118 665.083 C 66.183 668.612, 66.573 672.850, 66.984 674.500 C 67.395 676.150, 67.504 673.450, 67.227 668.500 C 66.637 657.956, 65.948 655.834, 66.118 665.083 M 793.630 675.750 C 793.264 681.112, 792.756 688.425, 792.502 692 C 792.164 696.745, 792.269 697.626, 792.891 695.264 C 793.826 691.706, 795.449 666, 794.738 666 C 794.495 666, 793.996 670.388, 793.630 675.750 M 68.286 688.500 C 68.294 691.250, 68.488 692.256, 68.718 690.736 C 68.947 689.216, 68.941 686.966, 68.704 685.736 C 68.467 684.506, 68.279 685.750, 68.286 688.500 M 789.574 723.536 C 788.565 735.931, 787.942 746.275, 788.191 746.524 C 788.663 746.996, 790.542 727.569, 791.652 710.750 C 792.006 705.388, 792.096 701, 791.853 701 C 791.609 701, 790.584 711.141, 789.574 723.536 M 71.149 723.500 C 71.144 726.800, 71.505 730.400, 71.950 731.500 C 72.420 732.662, 72.565 730.569, 72.297 726.500 C 71.694 717.355, 71.160 715.960, 71.149 723.500 M 73.300 746 C 73.300 749.025, 73.487 750.263, 73.716 748.750 C 73.945 747.237, 73.945 744.763, 73.716 743.250 C 73.487 741.737, 73.300 742.975, 73.300 746 M 74.310 757.500 C 74.315 760.800, 74.502 762.029, 74.725 760.232 C 74.947 758.435, 74.943 755.735, 74.715 754.232 C 74.486 752.729, 74.304 754.200, 74.310 757.500 M 785.606 769.250 C 785.231 774.337, 784.731 780.975, 784.494 784 C 784.100 789.030, 784.138 789.158, 784.940 785.500 C 785.979 780.753, 787.471 760, 786.772 760 C 786.505 760, 785.980 764.163, 785.606 769.250 M 76.088 780.583 C 76.136 783.837, 76.548 788.750, 77.003 791.500 C 77.573 794.944, 77.662 793.233, 77.290 786 C 76.699 774.529, 75.948 771.143, 76.088 780.583 M 782.654 803.344 C 782.214 809.307, 782.069 814.402, 782.331 814.665 C 783.005 815.338, 784.265 799.127, 783.821 795.500 C 783.619 793.850, 783.094 797.380, 782.654 803.344 M 79.070 816.083 C 79.109 819.612, 79.513 823.400, 79.969 824.500 C 80.448 825.657, 80.572 823.127, 80.262 818.500 C 79.606 808.691, 78.975 807.412, 79.070 816.083 M 781.286 820.500 C 781.294 823.250, 781.488 824.256, 781.718 822.736 C 781.947 821.216, 781.941 818.966, 781.704 817.736 C 781.467 816.506, 781.279 817.750, 781.286 820.500 M 780.184 832 C 780.073 834.475, 779.769 838.975, 779.507 842 C 779.047 847.318, 779.065 847.368, 780.054 843.500 C 780.617 841.300, 780.922 836.800, 780.732 833.500 C 780.441 828.461, 780.353 828.221, 780.184 832 M 82.058 850.583 C 82.089 853.288, 82.497 857.300, 82.965 859.500 C 83.557 862.292, 83.649 860.933, 83.270 855 C 82.663 845.534, 81.969 843.003, 82.058 850.583 M 778.320 857 C 778.320 860.575, 778.502 862.038, 778.723 860.250 C 778.945 858.462, 778.945 855.538, 778.723 853.750 C 778.502 851.962, 778.320 853.425, 778.320 857 M 776.705 872.872 C 776.268 878.026, 776.118 882.451, 776.372 882.706 C 777.130 883.464, 778.179 872.855, 777.827 868 C 777.588 864.708, 777.287 866.015, 776.705 872.872 M 84.310 873.500 C 84.315 876.800, 84.502 878.029, 84.725 876.232 C 84.947 874.435, 84.943 871.735, 84.715 870.232 C 84.486 868.729, 84.304 870.200, 84.310 873.500 M 85.286 884.500 C 85.294 887.250, 85.488 888.256, 85.718 886.736 C 85.947 885.216, 85.941 882.966, 85.704 881.736 C 85.467 880.506, 85.279 881.750, 85.286 884.500 M 774.057 903.063 C 773.361 911.897, 773.004 919.338, 773.264 919.597 C 773.768 920.101, 774.554 912.464, 775.616 896.750 C 775.978 891.388, 776.060 887, 775.798 887 C 775.536 887, 774.752 894.228, 774.057 903.063 M 87.058 907.583 C 87.089 910.288, 87.497 914.300, 87.965 916.500 C 88.557 919.292, 88.649 917.933, 88.270 912 C 87.663 902.534, 86.969 900.003, 87.058 907.583 M 770.144 947.574 C 768.863 962.190, 768.048 974.381, 768.333 974.666 C 769.223 975.556, 769.710 970.489, 772.699 929.250 C 773.028 924.712, 773.111 921, 772.884 921 C 772.657 921, 771.424 932.958, 770.144 947.574 M 89.310 930.500 C 89.315 933.800, 89.502 935.029, 89.725 933.232 C 89.947 931.435, 89.943 928.735, 89.715 927.232 C 89.486 925.729, 89.304 927.200, 89.310 930.500 M 90.118 942.583 C 90.183 945.837, 90.577 949.850, 90.994 951.500 C 91.410 953.151, 91.519 950.679, 91.236 946 C 90.637 936.101, 89.946 933.991, 90.118 942.583 M 92.274 965 C 92.252 968.025, 92.563 973.425, 92.964 977 C 93.652 983.116, 93.697 983.204, 93.723 978.500 C 93.739 975.750, 93.428 970.350, 93.033 966.500 C 92.331 959.656, 92.314 959.623, 92.274 965 M 766.192 993.750 C 764.888 1009.696, 764.817 1015.481, 766.023 1007.500 C 767.011 1000.965, 768.412 979, 767.841 979 C 767.597 979, 766.855 985.638, 766.192 993.750 M 95.058 1001.083 C 95.089 1004.063, 95.504 1008.300, 95.979 1010.500 C 96.580 1013.285, 96.674 1011.766, 96.288 1005.500 C 95.664 995.367, 94.970 992.875, 95.058 1001.083 M 762.692 1035 C 761.697 1046.825, 760.673 1058.975, 760.417 1062 C 760.105 1065.680, 760.244 1066.838, 760.836 1065.500 C 761.322 1064.400, 762.026 1058.550, 762.400 1052.500 C 762.774 1046.450, 763.539 1037.900, 764.099 1033.500 C 764.659 1029.100, 764.979 1022.800, 764.809 1019.500 C 764.604 1015.528, 763.889 1020.768, 762.692 1035 M 97.286 1023.500 C 97.294 1026.250, 97.488 1027.256, 97.718 1025.736 C 97.947 1024.216, 97.941 1021.966, 97.704 1020.736 C 97.467 1019.506, 97.279 1020.750, 97.286 1023.500 M 98.100 1035.583 C 98.155 1038.838, 98.561 1042.625, 99.004 1044 C 99.468 1045.442, 99.578 1043.115, 99.265 1038.500 C 98.615 1028.946, 97.960 1027.306, 98.100 1035.583 M 100.300 1058 C 100.300 1061.025, 100.487 1062.263, 100.716 1060.750 C 100.945 1059.237, 100.945 1056.763, 100.716 1055.250 C 100.487 1053.737, 100.300 1054.975, 100.300 1058 M 758 1070.921 C 757.175 1071.395, 740.300 1076.294, 720.500 1081.809 C 589.756 1118.226, 573.650 1122.839, 576.929 1122.931 C 578.265 1122.969, 580.740 1122.580, 582.429 1122.068 C 584.118 1121.555, 587.525 1120.612, 590 1119.972 C 592.475 1119.332, 595.978 1118.176, 597.784 1117.404 C 599.590 1116.632, 602.376 1116, 603.975 1116 C 605.574 1116, 607.129 1115.600, 607.432 1115.110 C 607.734 1114.621, 609.448 1113.988, 611.241 1113.704 C 614.659 1113.161, 619.453 1111.876, 624.500 1110.149 C 627.244 1109.211, 629.977 1108.471, 640 1105.957 C 641.925 1105.474, 647.192 1103.936, 651.704 1102.539 C 656.217 1101.143, 660.803 1100, 661.895 1100 C 662.988 1100, 664.160 1099.550, 664.500 1099 C 664.840 1098.450, 666.019 1098, 667.121 1098 C 669.378 1098, 678.588 1095.343, 681.236 1093.928 C 682.191 1093.418, 684.302 1093, 685.927 1093 C 687.552 1093, 689.129 1092.600, 689.432 1092.110 C 689.734 1091.621, 691.448 1090.988, 693.241 1090.704 C 696.659 1090.161, 701.453 1088.876, 706.500 1087.149 C 708.150 1086.585, 711.300 1085.683, 713.500 1085.144 C 722.650 1082.904, 726.676 1081.732, 729.784 1080.404 C 731.590 1079.632, 734.376 1079, 735.975 1079 C 737.574 1079, 739.160 1078.550, 739.500 1078 C 739.840 1077.450, 741.297 1077, 742.738 1077 C 747.094 1077, 760 1072.401, 760 1070.848 C 760 1069.825, 759.905 1069.828, 758 1070.921 M 102 1071.297 C 102 1071.534, 103.912 1072.406, 106.250 1073.235 C 110.302 1074.671, 113.730 1075.650, 123.250 1078.089 C 125.588 1078.688, 131.100 1080.229, 135.500 1081.514 C 139.900 1082.799, 145.525 1084.387, 148 1085.041 C 150.475 1085.696, 153.625 1086.594, 155 1087.036 C 156.375 1087.478, 160.200 1088.592, 163.500 1089.511 C 166.800 1090.429, 170.534 1091.590, 171.797 1092.091 C 173.060 1092.591, 175.123 1093, 176.380 1093 C 177.638 1093, 179.004 1093.337, 179.416 1093.749 C 180.222 1094.555, 188.439 1096.810, 193.759 1097.685 C 195.552 1097.980, 197.266 1098.621, 197.568 1099.110 C 197.871 1099.600, 199.366 1100, 200.892 1100 C 202.418 1100, 204.004 1100.337, 204.416 1100.749 C 204.828 1101.161, 207.266 1102.028, 209.833 1102.674 C 212.400 1103.320, 216.300 1104.375, 218.500 1105.018 C 220.700 1105.660, 223.967 1106.419, 225.759 1106.704 C 227.552 1106.988, 229.266 1107.621, 229.568 1108.110 C 229.871 1108.600, 231.554 1108.956, 233.309 1108.901 C 236.356 1108.807, 236.297 1108.738, 232 1107.379 C 227.805 1106.052, 176.584 1091.659, 127 1077.874 C 115.175 1074.587, 104.713 1071.665, 103.750 1071.381 C 102.787 1071.097, 102 1071.059, 102 1071.297 M 237.550 1109.864 C 238.385 1110.623, 248.646 1113.565, 259 1116.013 C 260.925 1116.469, 264.975 1117.595, 268 1118.516 C 274.186 1120.400, 279.755 1121.522, 279 1120.732 C 278.464 1120.172, 238.913 1109, 237.465 1109 C 236.989 1109, 237.028 1109.389, 237.550 1109.864 M 280 1122 C 280 1122.550, 281.688 1122.955, 283.750 1122.900 C 287.097 1122.811, 287.231 1122.715, 285 1122 C 281.425 1120.855, 280 1120.855, 280 1122 M 288.434 1123.893 C 288.810 1124.502, 289.879 1124.998, 290.809 1124.996 C 291.739 1124.993, 296.325 1126.147, 301 1127.561 C 315.265 1131.873, 330.141 1136.145, 337.500 1138.044 C 339.150 1138.470, 344.550 1139.999, 349.500 1141.442 C 354.450 1142.885, 360.300 1144.539, 362.500 1145.116 C 368.993 1146.821, 376.053 1148.818, 383.209 1150.977 C 386.899 1152.089, 390.949 1152.966, 392.209 1152.925 C 394.478 1152.851, 381.037 1148.923, 322 1132.406 C 305.225 1127.713, 290.656 1123.629, 289.625 1123.330 C 288.411 1122.978, 287.991 1123.177, 288.434 1123.893 M 551 1129.062 C 539.725 1132.281, 516.355 1138.871, 499.066 1143.707 C 479.762 1149.107, 468.714 1152.627, 470.438 1152.828 C 471.981 1153.009, 473.729 1152.671, 474.322 1152.078 C 474.915 1151.485, 476.323 1151.002, 477.450 1151.004 C 479.401 1151.009, 493.925 1146.868, 498.797 1144.919 C 500.060 1144.414, 502.123 1144, 503.380 1144 C 504.638 1144, 506.004 1143.663, 506.416 1143.251 C 507.095 1142.571, 513.575 1140.722, 520 1139.374 C 521.375 1139.085, 523.400 1138.467, 524.500 1138 C 525.600 1137.533, 527.625 1136.923, 529 1136.645 C 530.375 1136.367, 533.300 1135.624, 535.500 1134.994 C 537.700 1134.365, 541.600 1133.320, 544.167 1132.674 C 546.734 1132.028, 549.172 1131.161, 549.584 1130.749 C 549.996 1130.337, 551.614 1130, 553.180 1130 C 554.746 1130, 556.809 1129.592, 557.764 1129.092 C 560.016 1127.915, 569.840 1125, 571.556 1125 C 572.285 1125, 573.160 1124.550, 573.500 1124 C 574.454 1122.457, 572.938 1122.798, 551 1129.062 M 395 1154 C 395 1154.550, 396.238 1155.016, 397.750 1155.035 C 399.262 1155.055, 401.625 1155.714, 403 1156.500 C 404.375 1157.286, 406.711 1157.945, 408.191 1157.965 C 409.671 1157.984, 411.160 1158.450, 411.500 1159 C 411.840 1159.550, 413.576 1160, 415.359 1160 C 417.142 1160, 419.027 1160.378, 419.550 1160.839 C 420.072 1161.300, 422.975 1162.235, 426 1162.915 C 430.701 1163.973, 432.372 1163.909, 437.500 1162.480 C 444.131 1160.631, 448.956 1159.417, 453.500 1158.454 C 455.150 1158.104, 457.918 1157.184, 459.651 1156.409 C 461.384 1155.634, 463.495 1155, 464.342 1155 C 465.189 1155, 466.160 1154.550, 466.500 1154 C 467.380 1152.576, 466.055 1152.741, 458.855 1154.950 C 455.360 1156.022, 447.552 1158.239, 441.504 1159.876 L 430.508 1162.851 413.140 1157.926 C 393.490 1152.353, 395 1152.680, 395 1154" stroke="none" fill="#f7f7f7" fill-rule="evenodd"/><path d="M 57.250 260.716 C 58.763 260.945, 61.237 260.945, 62.750 260.716 C 64.263 260.487, 63.025 260.300, 60 260.300 C 56.975 260.300, 55.737 260.487, 57.250 260.716 M 105.750 260.732 C 108.087 260.943, 111.912 260.943, 114.250 260.732 C 116.587 260.522, 114.675 260.349, 110 260.349 C 105.325 260.349, 103.412 260.522, 105.750 260.732 M 153.750 260.737 C 156.637 260.939, 161.363 260.939, 164.250 260.737 C 167.137 260.535, 164.775 260.370, 159 260.370 C 153.225 260.370, 150.863 260.535, 153.750 260.737 M 299.750 260.737 C 302.637 260.939, 307.363 260.939, 310.250 260.737 C 313.137 260.535, 310.775 260.370, 305 260.370 C 299.225 260.370, 296.863 260.535, 299.750 260.737 M 357.264 260.718 C 358.784 260.947, 361.034 260.941, 362.264 260.704 C 363.494 260.467, 362.250 260.279, 359.500 260.286 C 356.750 260.294, 355.744 260.488, 357.264 260.718 M 406.750 260.723 C 408.538 260.945, 411.462 260.945, 413.250 260.723 C 415.038 260.502, 413.575 260.320, 410 260.320 C 406.425 260.320, 404.962 260.502, 406.750 260.723 M 433.250 260.743 C 437.512 260.931, 444.488 260.931, 448.750 260.743 C 453.012 260.556, 449.525 260.402, 441 260.402 C 432.475 260.402, 428.988 260.556, 433.250 260.743 M 529.750 260.737 C 532.638 260.939, 537.362 260.939, 540.250 260.737 C 543.138 260.535, 540.775 260.370, 535 260.370 C 529.225 260.370, 526.862 260.535, 529.750 260.737 M 633.250 260.716 C 634.763 260.945, 637.237 260.945, 638.750 260.716 C 640.263 260.487, 639.025 260.300, 636 260.300 C 632.975 260.300, 631.737 260.487, 633.250 260.716 M 751.250 260.728 C 753.313 260.944, 756.688 260.944, 758.750 260.728 C 760.813 260.513, 759.125 260.336, 755 260.336 C 750.875 260.336, 749.188 260.513, 751.250 260.728 M 431 711.448 L 431 1092.896 433.750 1092.003 C 435.262 1091.511, 450.675 1087.287, 468 1082.614 C 517.595 1069.239, 594.450 1048.434, 618 1042.008 C 629.825 1038.781, 650.501 1033.156, 663.946 1029.508 C 677.391 1025.861, 688.685 1022.695, 689.043 1022.473 C 689.402 1022.252, 689.989 1017.892, 690.347 1012.785 C 690.705 1007.678, 693.687 973.575, 696.973 937 C 700.259 900.425, 705.886 837.200, 709.477 796.500 C 716.642 715.295, 724.880 622.423, 734.003 520 C 737.261 483.425, 741.086 440.225, 742.502 424 C 743.918 407.775, 746.355 380.325, 747.918 363 C 749.481 345.675, 750.562 331.163, 750.321 330.750 C 750.079 330.337, 678.134 330, 590.441 330 L 431 330 431 711.448 M 461.667 427.667 C 461.300 428.033, 461 504.758, 461 598.167 C 461 760.808, 461.076 768, 462.793 768 C 464.750 768, 515.668 760.138, 589 748.513 C 596.975 747.249, 603.599 746.303, 603.720 746.411 C 604.023 746.681, 592.016 859.330, 591.653 859.624 C 591.569 859.693, 585.650 861.350, 578.500 863.306 C 565.596 866.837, 542.439 873.233, 492.500 887.061 C 478.200 891.020, 465.375 894.571, 464 894.952 L 461.500 895.644 461.240 940.511 C 461.090 966.251, 461.364 985.764, 461.882 986.282 C 462.418 986.818, 473.264 984.281, 488.642 980.021 C 528.584 968.955, 555.975 961.382, 613.500 945.498 C 642.650 937.449, 666.772 930.556, 667.104 930.181 C 667.436 929.807, 668.214 923.650, 668.832 916.500 C 670.090 901.952, 680.035 793.779, 685.473 735.500 C 691.727 668.472, 693.706 646.506, 693.517 646.249 C 693.415 646.111, 675.370 648.715, 653.416 652.034 C 631.462 655.353, 600 660.077, 583.500 662.530 C 567 664.984, 552.485 667.227, 551.244 667.516 L 548.988 668.041 549.244 591.496 L 549.500 514.951 625.500 514.967 C 667.300 514.976, 702 514.650, 702.611 514.242 C 703.636 513.558, 711.039 439.976, 711.011 430.750 L 711 427 586.667 427 C 518.283 427, 462.033 427.300, 461.667 427.667" stroke="none" fill="#fedd24" fill-rule="evenodd"/><path d="M 404.243 115.240 L 404 189.980 357.750 190.250 L 311.500 190.520 357.781 190.760 C 394.063 190.948, 404.166 190.730, 404.540 189.750 C 404.802 189.063, 404.898 155.200, 404.752 114.500 L 404.487 40.500 404.243 115.240 M 451.750 133.749 C 465.638 133.906, 488.363 133.906, 502.250 133.749 C 516.138 133.592, 504.775 133.464, 477 133.464 C 449.225 133.464, 437.863 133.592, 451.750 133.749 M 316.314 150.749 C 325.561 150.914, 340.411 150.913, 349.314 150.748 C 358.216 150.582, 350.650 150.447, 332.500 150.448 C 314.350 150.448, 307.066 150.583, 316.314 150.749 M 451.750 150.749 C 465.638 150.906, 488.363 150.906, 502.250 150.749 C 516.138 150.592, 504.775 150.464, 477 150.464 C 449.225 150.464, 437.863 150.592, 451.750 150.749 M 466.750 190.749 C 478.438 190.909, 497.563 190.909, 509.250 190.749 C 520.938 190.589, 511.375 190.458, 488 190.458 C 464.625 190.458, 455.063 190.589, 466.750 190.749 M 543.287 190.740 C 546.469 190.939, 551.419 190.937, 554.287 190.736 C 557.154 190.535, 554.550 190.372, 548.500 190.374 C 542.450 190.376, 540.104 190.541, 543.287 190.740 M 32.463 261.060 C 32.213 261.464, 33.123 274.553, 34.485 290.147 C 35.846 305.741, 38.770 339.425, 40.982 365 C 43.194 390.575, 46.138 424.550, 47.524 440.500 C 48.911 456.450, 51.154 482.550, 52.507 498.500 C 53.861 514.450, 55.444 532.675, 56.024 539 C 57.463 554.683, 65.573 648.171, 67.475 671 C 68.323 681.175, 69.453 694.450, 69.986 700.500 C 70.519 706.550, 72.538 729.725, 74.473 752 C 76.407 774.275, 78.229 795.200, 78.522 798.500 C 81.827 835.809, 93.334 969.335, 94.033 978.500 C 94.537 985.100, 95.419 995.450, 95.993 1001.500 C 97.309 1015.368, 102 1068.858, 102 1070.003 C 102 1070.473, 104.363 1071.522, 107.250 1072.335 C 113.678 1074.142, 178.073 1092.144, 229.500 1106.509 C 279.187 1120.388, 283.748 1121.665, 363.046 1143.893 L 430.591 1162.827 442.546 1159.529 C 449.120 1157.715, 460.125 1154.651, 467 1152.721 C 473.875 1150.790, 493.450 1145.307, 510.500 1140.535 C 527.550 1135.764, 548.475 1129.903, 557 1127.510 C 565.525 1125.118, 582.175 1120.455, 594 1117.150 C 605.825 1113.844, 626.750 1107.985, 640.500 1104.130 C 671.331 1095.486, 708.904 1084.994, 736 1077.462 C 747.275 1074.328, 757.220 1071.387, 758.099 1070.927 C 759.277 1070.311, 759.869 1067.909, 760.348 1061.796 C 760.705 1057.233, 762.112 1040.675, 763.473 1025 C 764.835 1009.325, 766.422 990.875, 766.999 984 C 767.576 977.125, 769.151 958.900, 770.498 943.500 C 775.777 883.167, 778.101 856.344, 780.504 828 C 781.880 811.775, 783.910 788.375, 785.016 776 C 786.121 763.625, 790.835 709.175, 795.492 655 C 800.149 600.825, 804.426 551.325, 804.997 545 C 806.885 524.085, 815.921 419.740, 816.991 406.500 C 817.568 399.350, 818.262 391.250, 818.534 388.500 C 818.805 385.750, 820.378 367.750, 822.029 348.500 C 823.681 329.250, 825.852 304.500, 826.854 293.500 C 827.857 282.500, 828.637 270.575, 828.589 267 L 828.500 260.500 430.709 260.413 C 211.923 260.364, 32.713 260.656, 32.463 261.060 M 431 711.448 L 431 1092.896 433.750 1092.003 C 435.262 1091.511, 450.675 1087.287, 468 1082.614 C 517.595 1069.239, 594.450 1048.434, 618 1042.008 C 629.825 1038.781, 650.501 1033.156, 663.946 1029.508 C 677.391 1025.861, 688.685 1022.695, 689.043 1022.473 C 689.402 1022.252, 689.989 1017.892, 690.347 1012.785 C 690.705 1007.678, 693.687 973.575, 696.973 937 C 700.259 900.425, 705.886 837.200, 709.477 796.500 C 716.642 715.295, 724.880 622.423, 734.003 520 C 737.261 483.425, 741.086 440.225, 742.502 424 C 743.918 407.775, 746.355 380.325, 747.918 363 C 749.481 345.675, 750.562 331.163, 750.321 330.750 C 750.079 330.337, 678.134 330, 590.441 330 L 431 330 431 711.448 M 312 649.302 L 312 871.605 235.750 850.818 C 193.813 839.385, 159.387 830.024, 159.250 830.015 C 159.113 830.007, 159 850.683, 159 875.961 L 159 921.923 163.250 923.043 C 165.588 923.659, 219.362 938.301, 282.748 955.581 C 346.135 972.862, 398.448 987, 398.998 987 C 399.665 987, 400 893.280, 400 707 L 400 427 356 427 L 312 427 312 649.302" stroke="none" fill="#e7c830" fill-rule="evenodd"/><path d="M 365.667 41.667 C 365.300 42.033, 365 66.783, 365 96.667 L 365 151 332 151 L 299 151 299 170.500 L 299 190 351.500 190 L 404 190 404 115.500 L 404 41 385.167 41 C 374.808 41, 366.033 41.300, 365.667 41.667 M 426.673 41.660 C 426.303 42.030, 426 62.733, 426 87.667 L 426 133 476.500 133 L 527 133 527 142 L 527 151 476.478 151 L 425.957 151 426.228 170.250 L 426.500 189.500 496.760 189.757 L 567.020 190.014 566.760 144.257 L 566.500 98.500 516.250 98.241 L 466 97.982 466 89.500 L 466 81.018 516.250 80.759 L 566.500 80.500 566.500 61 L 566.500 41.500 496.923 41.243 C 458.656 41.102, 427.044 41.290, 426.673 41.660" stroke="none" fill="#040404" fill-rule="evenodd"/></svg>