<svg xmlns="http://www.w3.org/2000/svg" width="522" height="343" viewBox="0 0 522 343" version="1.1"><path d="M 198.326 9.016 C 187.178 11.297, 179.944 19.654, 176.511 34.219 C 174.469 42.876, 174.631 62.926, 176.845 75.854 C 178.443 85.177, 178.464 86.262, 177.060 86.740 C 149.317 96.192, 129.292 109.421, 122.932 122.500 C 119.350 129.864, 119.554 138.694, 123.470 145.819 C 130.446 158.512, 150.017 171.583, 173.831 179.453 C 178.694 181.060, 179.109 181.430, 178.549 183.661 C 176.851 190.426, 175.011 206.525, 175.006 214.662 C 174.995 232.325, 180.047 247.883, 187.687 253.710 C 202.290 264.848, 226.450 258.019, 253.827 235.014 L 261.153 228.858 268.327 234.769 C 289.266 252.026, 309.263 260.706, 323.223 258.599 C 329.869 257.595, 336.802 252.648, 340.690 246.134 C 345.257 238.483, 347.127 229.053, 347.068 213.978 C 347.027 203.524, 345.191 186.968, 343.566 182.393 C 343.343 181.765, 347.566 179.677, 353.336 177.563 C 381.237 167.343, 399.864 151.388, 401.667 136.167 C 403.649 119.429, 384.901 101.429, 353.500 89.922 C 348.550 88.108, 344.192 86.371, 343.816 86.062 C 343.440 85.753, 343.766 82.350, 344.540 78.500 C 346.671 67.905, 347.502 46.702, 346.101 38.659 C 342.875 20.134, 334.750 10.230, 321.315 8.447 C 307.700 6.641, 286.921 16.413, 264.733 35.056 C 260.423 38.678, 261.990 39.294, 249.153 28.933 C 230.674 14.019, 211.189 6.383, 198.326 9.016 M 198.388 22.919 C 188.785 27.078, 185.481 51.831, 191.058 77.834 L 192.120 82.787 196.876 81.533 C 199.492 80.843, 206.777 79.506, 213.066 78.563 C 219.355 77.619, 225.400 76.657, 226.500 76.425 C 227.600 76.193, 230.370 73.415, 232.656 70.251 C 234.941 67.088, 239.975 60.848, 243.842 56.384 L 250.872 48.269 247.686 45.240 C 235.948 34.080, 216.115 23.109, 206.441 22.425 C 203.174 22.193, 199.550 22.416, 198.388 22.919 M 307.194 23.981 C 297.256 27.557, 286.009 34.729, 274.627 44.746 L 270.938 47.993 279.574 58.246 C 284.323 63.886, 289.399 70.192, 290.854 72.260 C 292.309 74.328, 294.400 76.205, 295.500 76.431 C 296.600 76.658, 303.575 77.837, 311 79.051 C 318.425 80.265, 325.696 81.470, 327.158 81.729 C 329.664 82.173, 329.880 81.893, 330.919 76.850 C 332.839 67.529, 333.819 52.763, 333.033 45 C 331.995 34.746, 330.174 29.327, 326.431 25.358 C 323.586 22.342, 322.716 22.004, 317.882 22.036 C 314.922 22.056, 310.112 22.931, 307.194 23.981 M 253.189 66.391 L 245.878 75 260.439 75 C 268.448 75, 275 74.655, 275 74.232 C 275 73.810, 271.738 69.936, 267.750 65.624 L 260.500 57.783 253.189 66.391 M 245.500 88.925 L 235.500 89.500 229.282 98.946 C 225.863 104.142, 220.098 114.157, 216.472 121.201 L 209.879 134.010 215.513 144.854 C 218.612 150.818, 224.216 160.603, 227.966 166.599 L 234.785 177.500 239.642 178.162 C 245.934 179.020, 276.066 179.020, 282.358 178.162 L 287.215 177.500 294.099 166.500 C 297.885 160.450, 303.544 150.527, 306.675 144.448 L 312.368 133.396 306.516 122.448 C 299.962 110.188, 288.641 91.752, 286.742 90.248 C 285.178 89.009, 258.764 88.161, 245.500 88.925 M 204.500 93.834 C 196.613 95.476, 196.503 95.541, 196.712 98.424 C 196.955 101.776, 201.956 116.007, 202.884 115.986 C 203.223 115.978, 205.396 112.491, 207.714 108.236 C 210.032 103.981, 213.095 98.588, 214.521 96.250 L 217.113 92 214.807 92.084 C 213.538 92.131, 208.900 92.918, 204.500 93.834 M 307.952 97.250 C 309.666 100.138, 312.741 105.530, 314.784 109.233 C 316.828 112.936, 318.764 115.974, 319.087 115.983 C 320.230 116.016, 326.267 96.867, 325.384 96.008 C 324.539 95.185, 309.377 92, 306.307 92 C 305.220 92, 305.650 93.372, 307.952 97.250 M 173.291 102.488 C 149.303 111.721, 134 124.041, 134 134.118 C 134 141.344, 143.154 150.234, 159 158.399 C 166.605 162.317, 182.036 168.494, 182.430 167.778 C 182.514 167.625, 183.638 164.130, 184.927 160.010 C 186.215 155.891, 188.954 148.336, 191.012 143.221 L 194.755 133.920 189.915 121.710 C 187.253 114.995, 184.523 107.362, 183.849 104.750 C 182.422 99.225, 182.002 99.135, 173.291 102.488 M 337.597 105.750 C 336.624 108.912, 333.845 116.512, 331.420 122.637 L 327.010 133.775 329.484 139.368 C 330.844 142.444, 333.552 149.582, 335.500 155.230 C 337.449 160.879, 339.243 166.058, 339.487 166.741 C 340.468 169.487, 366.328 157.952, 376.455 150.251 C 383.533 144.870, 388 138.682, 388 134.260 C 388 126.167, 378.769 116.931, 362.500 108.748 C 354.034 104.490, 342.825 100, 340.660 100 C 339.948 100, 338.570 102.588, 337.597 105.750 M 253.994 107.934 C 239.948 112.207, 231.501 126.893, 235.392 140.277 C 238.739 151.791, 247.077 158.835, 258.438 159.747 C 274.774 161.058, 287.280 149.632, 287.187 133.480 C 287.140 125.389, 284.617 119.746, 278.545 114.148 C 272.170 108.272, 261.643 105.607, 253.994 107.934 M 199.208 160.250 C 197.428 165.338, 195.978 170.001, 195.986 170.613 C 195.999 171.647, 200.478 172.828, 212.250 174.904 C 214.863 175.365, 217 175.524, 217 175.257 C 217 174.990, 215.042 171.561, 212.648 167.636 C 210.255 163.711, 207.086 158.363, 205.606 155.750 C 204.126 153.137, 202.809 151, 202.680 151 C 202.550 151, 200.987 155.162, 199.208 160.250 M 316.591 154.750 C 315.613 156.813, 312.604 162.162, 309.906 166.639 C 307.208 171.115, 305 174.995, 305 175.260 C 305 175.525, 307.137 175.365, 309.750 174.904 C 321.524 172.828, 326.001 171.647, 326.012 170.613 C 326.032 168.727, 319.714 151, 319.022 151 C 318.664 151, 317.570 152.688, 316.591 154.750 M 191.061 190.250 C 188.955 200.474, 188.099 215.077, 189.092 223.822 C 190.554 236.687, 194.537 243.803, 201.148 245.362 C 208.762 247.158, 223.839 240.823, 238.837 229.525 C 252.614 219.148, 252.194 220.087, 246.053 213.367 C 243.208 210.255, 237.946 203.949, 234.358 199.354 C 230.770 194.759, 227.643 191, 227.410 191 C 225.738 191, 206.050 187.773, 200.147 186.531 C 196.144 185.689, 192.706 185, 192.506 185 C 192.305 185, 191.655 187.363, 191.061 190.250 M 324 186.055 C 321.040 186.774, 310.982 188.479, 297.306 190.579 C 294.731 190.975, 292.851 192.684, 287.615 199.389 C 284.042 203.965, 278.765 210.284, 275.889 213.431 L 270.659 219.153 273.580 221.588 C 291.549 236.572, 305.151 243.992, 316.084 244.774 C 322.829 245.256, 322.990 245.210, 326.388 241.812 C 331.632 236.568, 333.477 229.230, 333.379 214 C 333.310 203.167, 332.173 192.834, 330.381 186.750 C 329.820 184.845, 329.241 184.782, 324 186.055 M 250.022 197 C 252.106 199.475, 255.430 203.300, 257.410 205.500 L 261.008 209.500 265.575 204.500 C 268.087 201.750, 271.409 197.925, 272.957 196 L 275.772 192.500 261.002 192.500 L 246.232 192.500 250.022 197 M 348 281.752 C 345.900 282.801, 343.778 284.977, 342.694 287.194 C 338.865 295.029, 343.711 302.424, 354.754 305.599 C 365.684 308.741, 368.411 311.517, 364.250 315.267 C 359.874 319.211, 353.117 318.127, 350.209 313.015 C 348.903 310.720, 347.793 310.015, 345.500 310.022 C 339.335 310.040, 338.469 313.513, 343.146 319.459 C 346.138 323.262, 350.797 325, 358 325 C 367.929 325, 373.391 321.633, 374.995 314.524 C 376.916 306.005, 372.342 300.370, 360.709 296.926 C 356.744 295.752, 352.938 294.333, 352.250 293.773 C 350.130 292.047, 350.817 289.020, 353.565 287.975 C 357.805 286.363, 360.054 286.846, 363 290 C 365.258 292.418, 366.623 293, 370.026 293 C 374.240 293, 374.249 292.993, 373.613 289.816 C 372.325 283.373, 366.710 279.999, 357.282 280.002 C 353.781 280.002, 350.119 280.693, 348 281.752 M 146 302.500 L 146 324 151 324 L 156 324 156 315 C 156 307.042, 156.206 306, 157.777 306 C 160.802 306, 163.832 308.841, 169.045 316.567 L 174.061 324 179.530 324 C 182.539 324, 185 323.780, 185 323.510 C 185 322.371, 176.104 309.339, 174.127 307.581 L 171.968 305.661 175.734 303.554 C 183.348 299.295, 183.905 287.352, 176.696 282.956 C 173.938 281.275, 171.615 281.007, 159.750 281.004 L 146 281 146 302.500 M 326 298.521 L 326 316.043 323.504 317.180 C 321.442 318.120, 320.660 318.002, 319.004 316.504 C 317.902 315.506, 317 313.635, 317 312.345 C 317 310.363, 316.497 310.002, 313.750 310.015 C 308.743 310.039, 307.609 311.205, 308.322 315.596 C 309.304 321.650, 312.773 324.330, 320.224 324.789 C 325.562 325.117, 327.023 324.821, 330 322.803 C 335.065 319.370, 335.879 315.870, 335.944 297.250 L 336 281 331 281 L 326 281 326 298.521 M 282.750 284.573 C 279.802 286.504, 279 287.668, 279 290.015 C 279 292.333, 278.553 293, 277 293 C 275.444 293, 275 293.667, 275 296 C 275 298.287, 275.454 299, 276.912 299 C 278.656 299, 278.853 299.953, 279.162 309.898 C 279.580 323.371, 280.586 325, 288.488 325 C 291.336 325, 293.889 324.778, 294.161 324.506 C 294.433 324.234, 294.455 322.645, 294.210 320.976 C 293.842 318.468, 293.415 318.051, 291.757 318.577 C 288.747 319.532, 288.032 317.465, 288.015 307.750 L 288 299 291 299 C 293.667 299, 294 298.667, 294 296 C 294 293.333, 293.667 293, 291 293 C 288.030 293, 288 292.944, 288 287.500 C 288 284.475, 287.663 282.026, 287.250 282.059 C 286.837 282.091, 284.813 283.223, 282.750 284.573 M 156 293.500 L 156 299 161.777 299 C 168.446 299, 172 297.088, 172 293.500 C 172 289.912, 168.446 288, 161.777 288 L 156 288 156 293.500 M 190.500 293.988 C 186.103 296.881, 184 301.502, 184 308.267 C 184 319.598, 188.784 324.989, 198.846 324.996 C 204.937 325.001, 208.934 323.075, 211.359 318.969 C 212.836 316.468, 212.841 316.153, 211.413 315.605 C 208.418 314.456, 204.806 315.007, 202.273 317 C 200.874 318.100, 199.201 319, 198.554 319 C 196.618 319, 193 315.066, 193 312.961 C 193 311.137, 193.736 311, 203.512 311 L 214.024 311 213.388 306.750 C 212.456 300.522, 210.071 296.014, 206.580 293.886 C 202.395 291.334, 194.456 291.384, 190.500 293.988 M 220.961 293.407 C 219.565 294.197, 217.785 296.032, 217.007 297.486 C 215.781 299.777, 215.786 300.253, 217.046 301.050 C 219.507 302.607, 223.469 302.101, 225.268 300 C 226.210 298.900, 227.689 298, 228.556 298 C 231.010 298, 234 299.921, 234 301.497 C 234 302.834, 231.192 303.882, 223.323 305.481 C 218.443 306.473, 215 310.499, 215 315.213 C 215 323.254, 223.992 327.641, 231.993 323.504 C 233.818 322.560, 235.114 322.375, 235.502 323.004 C 235.841 323.552, 238.143 324, 240.618 324 C 243.983 324, 244.914 323.685, 244.309 322.750 C 243.864 322.063, 243.275 315.999, 243 309.277 C 242.365 293.741, 241.600 292.679, 230.741 292.255 C 225.836 292.063, 222.681 292.435, 220.961 293.407 M 252.898 294.287 C 246.452 298.627, 244.239 308.230, 247.819 316.324 C 250.741 322.930, 254.767 325.206, 262.733 324.758 C 267.976 324.463, 269.442 323.950, 271.971 321.528 C 277.548 316.185, 276.914 313.047, 270.250 313.015 C 268.043 313.005, 267 313.474, 267 314.477 C 267 315.289, 265.857 316.703, 264.459 317.619 C 258.979 321.210, 254.088 314.571, 255.462 305.406 C 256.300 299.815, 259.683 297.079, 263.569 298.849 C 264.937 299.473, 266.317 300.662, 266.635 301.491 C 267.257 303.112, 272.583 303.551, 274.771 302.163 C 276.436 301.106, 272.487 295.059, 268.970 293.279 C 264.816 291.177, 256.768 291.682, 252.898 294.287 M 195 300 C 193.900 301.100, 193 302.900, 193 304 C 193 305.758, 193.667 306, 198.500 306 C 203.333 306, 204 305.758, 204 304 C 204 301.651, 200.653 298, 198.500 298 C 197.675 298, 196.100 298.900, 195 300 M 228.500 310.724 C 223.860 311.864, 222.374 316.059, 225.935 317.965 C 229.771 320.018, 234 316.848, 234 311.918 C 234 309.991, 232.662 309.701, 228.500 310.724" stroke="none" fill="#08dcfc" fill-rule="evenodd"/><path d="" stroke="none" fill="#04dcfc" fill-rule="evenodd"/></svg>